<?xml version="1.0" standalone="no"?>
<!DOCTYPE svg PUBLIC "-//W3C//DTD SVG 20010904//EN"
 "http://www.w3.org/TR/2001/REC-SVG-20010904/DTD/svg10.dtd">
<svg version="1.0" xmlns="http://www.w3.org/2000/svg"
 width="1686.000000pt" height="286.000000pt" viewBox="0 0 1686.000000 286.000000"
 preserveAspectRatio="xMidYMid meet">

<g transform="translate(0.000000,286.000000) scale(0.100000,-0.100000)"
fill="#000000" stroke="none">
<path d="M8895 2759 c-185 -165 -450 -316 -637 -364 -52 -13 -137 -26 -189
-28 l-94 -5 -59 -69 c-32 -37 -73 -90 -92 -118 l-34 -50 23 -8 c36 -14 225 -1
313 22 323 83 650 341 843 664 13 20 21 37 19 36 -2 0 -43 -36 -93 -80z"/>
<path d="M6005 2819 c-222 -51 -495 -194 -735 -385 -118 -93 -408 -387 -512
-518 -312 -390 -526 -792 -604 -1131 -22 -97 -25 -276 -5 -355 82 -333 395
-453 718 -274 394 218 753 759 731 1101 -10 146 -81 220 -204 209 -199 -17
-414 -187 -531 -421 -44 -86 -90 -221 -107 -315 -24 -122 -23 -123 42 -62 70
66 178 144 252 182 54 27 55 29 73 96 66 254 282 464 367 357 20 -25 22 -36
17 -118 -3 -52 -14 -118 -27 -155 -95 -288 -345 -596 -575 -706 -216 -105
-399 34 -382 290 19 287 161 631 420 1021 177 266 476 609 677 777 179 150
392 278 494 297 48 9 126 4 126 -8 0 -3 -18 -16 -39 -28 -130 -74 -311 -240
-413 -376 -72 -98 -162 -275 -178 -353 -30 -144 39 -245 157 -231 58 6 177 66
238 118 123 106 243 272 310 430 55 130 77 220 77 322 0 73 2 78 25 83 13 4
59 4 101 2 136 -9 294 -75 542 -228 74 -46 163 -100 198 -121 l63 -37 107 110
c59 60 108 113 110 117 5 13 -486 257 -578 287 -79 26 -97 28 -245 28 -157 0
-162 0 -266 -35 l-105 -36 -35 24 c-70 48 -199 66 -304 42z m301 -261 c-26
-232 -143 -461 -319 -624 -129 -120 -227 -160 -276 -113 -104 98 183 541 477
737 121 80 127 80 118 0z"/>
<path d="M8147 2796 c-78 -33 -178 -94 -262 -161 -459 -368 -860 -881 -1196
-1530 -72 -139 -97 -179 -118 -186 -31 -12 -121 -24 -121 -16 0 3 16 43 36 89
168 390 33 589 -291 429 -155 -76 -312 -221 -467 -428 -188 -253 -288 -490
-288 -682 1 -167 76 -247 217 -227 144 19 376 201 541 424 42 57 191 283 196
299 2 3 151 22 154 18 2 -2 -19 -73 -47 -158 -51 -158 -81 -290 -81 -356 0
-123 80 -221 179 -221 92 0 196 63 327 199 l74 76 0 -70 c0 -95 27 -151 90
-183 95 -49 194 -10 384 153 l59 50 -6 -33 c-11 -54 10 -128 45 -157 23 -20
40 -25 83 -25 172 0 420 218 689 603 36 52 66 98 66 101 0 3 -20 6 -44 6 l-44
0 -85 -118 c-108 -149 -182 -231 -263 -288 -66 -47 -106 -55 -112 -21 -5 25
51 139 135 277 62 102 421 719 452 778 l12 22 -143 0 -143 0 -20 -36 -19 -36
-34 41 c-53 64 -147 77 -248 35 -68 -28 -188 -117 -283 -208 -127 -123 -236
-261 -403 -511 -210 -314 -291 -405 -359 -405 -66 0 -76 86 -30 251 37 130
128 348 155 371 12 10 75 58 141 107 177 131 319 257 510 452 196 201 469 521
454 533 -2 1 -24 0 -49 -2 -43 -4 -48 -8 -126 -106 -214 -265 -603 -648 -789
-776 -25 -17 -49 -30 -51 -27 -12 12 143 289 298 531 226 353 411 592 614 793
142 139 242 221 299 243 68 26 70 -44 4 -181 -21 -44 -39 -82 -39 -85 0 -7 23
-5 61 6 33 9 40 18 69 83 25 55 34 90 38 149 4 75 4 78 -26 108 -26 26 -38 30
-84 30 -32 0 -75 -10 -111 -24z m-1712 -1460 c31 -31 40 -82 27 -155 -11 -62
-57 -182 -92 -239 -20 -32 -20 -32 -56 -17 -57 24 -92 53 -121 103 -66 112
-12 239 134 313 50 25 79 24 108 -5z m1629 -2 c9 -8 16 -20 16 -26 0 -5 -35
-69 -78 -142 -44 -72 -118 -198 -167 -281 -161 -274 -284 -443 -360 -493 -56
-37 -85 -40 -110 -12 -73 81 187 552 455 821 141 141 203 175 244 133z m-1920
-399 c28 -27 75 -61 103 -75 29 -14 52 -30 53 -36 0 -19 -95 -170 -163 -257
-106 -135 -212 -217 -281 -217 -16 0 -38 11 -53 26 -24 24 -25 30 -21 102 4
57 13 98 38 155 36 87 137 260 201 345 l42 56 16 -25 c8 -13 38 -46 65 -74z"/>
<path d="M1615 2776 c-516 -134 -1154 -728 -1441 -1342 -56 -120 -117 -299
-146 -430 -31 -140 -31 -375 0 -487 76 -277 292 -445 608 -472 142 -12 367 25
789 132 458 115 608 139 825 130 157 -7 260 -30 367 -82 70 -35 166 -116 209
-178 l19 -28 66 64 c77 76 140 104 268 118 193 22 477 -45 663 -156 52 -30 56
-32 43 -11 -36 55 -266 230 -420 321 -288 168 -623 210 -1085 135 -69 -11
-321 -68 -560 -126 -594 -144 -650 -155 -811 -161 -165 -7 -251 9 -368 68
-174 87 -243 218 -242 460 1 430 338 1063 829 1556 165 166 283 258 417 323
119 58 199 77 250 60 43 -14 69 -58 60 -100 -5 -24 -12 -29 -53 -35 -39 -6
-56 -16 -98 -58 -61 -61 -83 -117 -68 -175 12 -51 50 -69 109 -52 52 15 86 45
136 123 105 161 92 320 -31 395 -51 30 -59 32 -150 32 -66 -1 -123 -8 -185
-24z"/>
<path d="M3670 2131 c-163 -50 -394 -260 -618 -561 -201 -269 -304 -390 -429
-502 -136 -122 -254 -160 -322 -102 -82 68 -62 199 70 456 155 301 415 577
544 578 36 0 48 -7 64 -38 19 -35 5 -59 -37 -67 -98 -18 -171 -112 -163 -210
2 -23 45 -65 67 -65 30 0 93 41 128 83 88 108 121 260 74 342 -36 62 -93 87
-193 83 -139 -6 -260 -78 -476 -284 -126 -120 -187 -168 -273 -214 -93 -48
-99 -44 -65 45 86 220 74 375 -33 432 -69 36 -213 12 -327 -53 -194 -111 -422
-347 -565 -583 -164 -271 -213 -564 -114 -677 43 -49 78 -64 147 -64 118 0
245 73 418 243 133 129 189 201 306 387 93 147 75 132 199 163 26 7 26 5 -32
-111 -109 -218 -142 -372 -106 -495 39 -133 163 -205 307 -179 138 26 248 90
427 252 61 56 112 98 112 93 -1 -4 -7 -35 -15 -68 -20 -82 -18 -142 5 -193 15
-34 29 -47 66 -64 99 -43 227 1 360 125 l74 69 0 -51 c0 -104 44 -154 135
-153 28 0 68 7 88 16 102 42 264 178 395 330 93 107 262 327 262 340 0 4 -20
6 -45 5 -44 -3 -46 -4 -125 -105 -92 -116 -247 -270 -303 -299 -45 -24 -73
-12 -70 29 1 15 137 255 302 534 l300 507 -137 3 c-136 3 -137 3 -158 -23
l-20 -25 -23 24 c-47 50 -129 69 -201 47z m148 -137 c12 -8 22 -19 22 -24 0
-21 -386 -664 -465 -776 -52 -72 -156 -171 -189 -180 -113 -28 -109 78 11 306
66 125 153 253 278 410 136 170 190 226 247 254 61 30 66 31 96 10z m-1853
-18 c47 -47 43 -150 -12 -281 -42 -101 -45 -105 -95 -93 -79 17 -150 77 -163
139 -11 50 13 115 64 171 75 84 160 110 206 64z m-343 -325 c32 -44 111 -100
181 -126 26 -10 47 -22 47 -27 0 -5 -34 -62 -75 -126 -141 -222 -299 -371
-393 -372 -32 0 -69 41 -78 85 -16 84 68 287 202 489 43 64 80 116 83 116 3 0
18 -18 33 -39z"/>
<path d="M4504 2112 l-90 -3 -72 -117 -71 -117 122 -3 c66 -1 126 -1 133 2 9
3 115 171 151 238 2 4 -16 6 -39 5 -24 -1 -84 -3 -134 -5z"/>
<path d="M16505 859 c-200 -9 -687 -44 -895 -63 l-135 -13 250 -2 c425 -2 929
-25 1052 -47 25 -5 37 -1 57 20 33 32 33 60 1 91 -27 28 -18 28 -330 14z"/>
<path d="M14930 759 c-939 -55 -2121 -203 -3135 -394 -205 -38 -229 -48 -259
-109 -23 -47 -15 -95 22 -137 35 -39 78 -48 167 -32 176 30 414 45 780 51
l380 5 -115 18 c-157 25 -396 49 -478 49 -149 0 -111 12 368 114 597 129 1508
284 2490 425 l135 19 -105 0 c-58 -1 -170 -5 -250 -9z"/>
<path d="M7880 128 c0 -4 4 -8 9 -8 6 0 12 4 15 8 3 5 -1 9 -9 9 -8 0 -15 -4
-15 -9z"/>
</g>
</svg>
